<?xml version="1.0" encoding="utf-8"?>
<!-- Generator: Adobe Illustrator 16.0.0, SVG Export Plug-In . SVG Version: 6.00 Build 0)  -->
<!DOCTYPE svg PUBLIC "-//W3C//DTD SVG 1.1//EN" "http://www.w3.org/Graphics/SVG/1.1/DTD/svg11.dtd">
<svg version="1.1" id="Layer_1" xmlns="http://www.w3.org/2000/svg" xmlns:xlink="http://www.w3.org/1999/xlink" x="0px" y="0px"
	 width="78.768px" height="221.102px" viewBox="0 0 78.768 221.102" enable-background="new 0 0 78.768 221.102"
	 xml:space="preserve">
<g>
	<defs>
		<rect id="SVGID_1_" x="0.309" width="78.459" height="221.102"/>
	</defs>
	<clipPath id="SVGID_2_">
		<use xlink:href="#SVGID_1_"  overflow="visible"/>
	</clipPath>
	<path clip-path="url(#SVGID_2_)" d="M0.342,42.848c0,0-0.478,52.011,2.185,67.229c3.131,17.899,32.062,18.469,32.062,18.469
		v-21.424c0,0-11.82-0.443-12.559-14.627c-0.739-14.186-0.591-49.646-0.591-49.646H0.342z"/>
	<path clip-path="url(#SVGID_2_)" d="M55.127,42.848v149.233c0,0-0.443,7.535-7.092,8.57c-4.876,0.441-16.549,0.59-16.549,0.59
		v19.209c0,0,25.266,3.398,35.461-5.32c10.164-8.689,11.82-15.219,11.82-28.811V42.848H55.127z"/>
</g>
<rect x="55.127" width="23.641" height="23.64"/>
</svg>
