<?xml version="1.0" encoding="utf-8"?>
<!-- Generator: Adobe Illustrator 16.0.0, SVG Export Plug-In . SVG Version: 6.00 Build 0)  -->
<!DOCTYPE svg PUBLIC "-//W3C//DTD SVG 1.1//EN" "http://www.w3.org/Graphics/SVG/1.1/DTD/svg11.dtd">
<svg version="1.1" id="Layer_1" xmlns="http://www.w3.org/2000/svg" xmlns:xlink="http://www.w3.org/1999/xlink" x="0px" y="0px"
	 width="205.167px" height="37.473px" viewBox="0 0 205.167 37.473" enable-background="new 0 0 205.167 37.473"
	 xml:space="preserve">
<g id="Layer_4" display="none">
	<path display="inline" fill="#FFFFFF" d="M170.148,17.94c-3.716-0.685-5.986-1.312-7.348-2.673c-1.36-1.359-1.988-3.63-2.674-7.348
		c-0.058-0.308-0.32-0.528-0.636-0.528c-0.312,0-0.579,0.226-0.635,0.528c-0.685,3.718-1.312,5.986-2.673,7.348
		c-1.361,1.36-3.633,1.988-7.348,2.673c-0.307,0.06-0.528,0.322-0.528,0.638c0,0.312,0.224,0.579,0.528,0.635
		c3.715,0.685,5.985,1.312,7.348,2.673c1.359,1.36,1.988,3.632,2.673,7.348c0.056,0.308,0.321,0.528,0.635,0.528
		c0.312,0,0.578-0.224,0.636-0.528c0.686-3.716,1.312-5.984,2.674-7.348c1.359-1.357,3.632-1.988,7.348-2.673
		c0.307-0.056,0.527-0.321,0.527-0.635C170.675,18.263,170.455,17.998,170.148,17.94z"/>
</g>
<g id="Layer_2" display="none">
	<path display="inline" fill="none" stroke="#000000" stroke-width="8" stroke-linecap="round" stroke-miterlimit="10" d="
		M-13.007-45.615C-6.302-55.44-2.382-67.318-2.382-80.111c0-33.843-27.435-61.274-61.277-61.274
		c-33.842,0-61.276,27.435-61.276,61.274c0,33.843,27.435,61.276,61.276,61.276c14.613,0,28.031-5.115,38.562-13.652"/>
</g>
<g>
	<g>
		<g>
			<g>
				<defs>
					<rect id="SVGID_1_" x="97.084" y="0" width="13.021" height="36.693"/>
				</defs>
				<clipPath id="SVGID_2_">
					<use xlink:href="#SVGID_1_"  overflow="visible"/>
				</clipPath>
				<path clip-path="url(#SVGID_2_)" d="M97.09,7.111c0,0-0.08,8.633,0.362,11.156c0.52,2.972,5.321,3.065,5.321,3.065v-3.555
					c0,0-1.961-0.074-2.084-2.428s-0.099-8.239-0.099-8.239H97.09L97.09,7.111z"/>
			</g>
		</g>
		<g>
			<g>
				<defs>
					<rect id="SVGID_3_" x="97.084" y="0" width="13.021" height="36.693"/>
				</defs>
				<clipPath id="SVGID_4_">
					<use xlink:href="#SVGID_3_"  overflow="visible"/>
				</clipPath>
				<path clip-path="url(#SVGID_4_)" d="M106.182,7.111v24.769c0,0-0.074,1.25-1.177,1.422c-0.811,0.07-2.748,0.098-2.748,0.098
					v3.188c0,0,4.193,0.564,5.886-0.883c1.688-1.441,1.961-2.525,1.961-4.781V7.111H106.182z"/>
			</g>
		</g>
	</g>
	<rect x="106.182" y="0" width="3.923" height="3.923"/>
</g>
</svg>
